<svg width="2381" height="1200" viewBox="0 0 2381 1200" fill="none" xmlns="http://www.w3.org/2000/svg">
<path d="M1136.93 334.46L1092.04 454H1069.33L1024.27 334.46H1045.25L1080.68 433.876L1116.29 334.46H1136.93ZM1240.19 404.292C1240.19 407.847 1239.96 411.057 1239.5 413.924H1167.09C1167.66 421.492 1170.47 427.569 1175.51 432.156C1180.56 436.743 1186.75 439.036 1194.09 439.036C1204.64 439.036 1212.09 434.621 1216.45 425.792H1237.61C1234.74 434.507 1229.52 441.673 1221.95 447.292C1214.5 452.796 1205.21 455.548 1194.09 455.548C1185.03 455.548 1176.89 453.541 1169.67 449.528C1162.56 445.4 1156.94 439.667 1152.81 432.328C1148.8 424.875 1146.79 416.275 1146.79 406.528C1146.79 396.781 1148.74 388.239 1152.64 380.9C1156.65 373.447 1162.21 367.713 1169.32 363.7C1176.55 359.687 1184.8 357.68 1194.09 357.68C1203.03 357.68 1211 359.629 1218 363.528C1224.99 367.427 1230.44 372.931 1234.34 380.04C1238.24 387.035 1240.19 395.119 1240.19 404.292ZM1219.72 398.1C1219.6 390.876 1217.02 385.085 1211.98 380.728C1206.93 376.371 1200.68 374.192 1193.23 374.192C1186.46 374.192 1180.67 376.371 1175.86 380.728C1171.04 384.971 1168.18 390.761 1167.26 398.1H1219.72ZM1308.5 357.68C1315.73 357.68 1322.15 359.228 1327.77 362.324C1333.5 365.42 1337.97 370.007 1341.18 376.084C1344.51 382.161 1346.17 389.5 1346.17 398.1V454H1326.73V401.024C1326.73 392.539 1324.61 386.06 1320.37 381.588C1316.13 377.001 1310.34 374.708 1303 374.708C1295.66 374.708 1289.81 377.001 1285.45 381.588C1281.21 386.06 1279.09 392.539 1279.09 401.024V454H1259.48V326.72H1279.09V370.236C1282.42 366.223 1286.6 363.127 1291.65 360.948C1296.81 358.769 1302.42 357.68 1308.5 357.68ZM1381.16 346.672C1377.6 346.672 1374.62 345.468 1372.21 343.06C1369.81 340.652 1368.6 337.671 1368.6 334.116C1368.6 330.561 1369.81 327.58 1372.21 325.172C1374.62 322.764 1377.6 321.56 1381.16 321.56C1384.6 321.56 1387.52 322.764 1389.93 325.172C1392.34 327.58 1393.54 330.561 1393.54 334.116C1393.54 337.671 1392.34 340.652 1389.93 343.06C1387.52 345.468 1384.6 346.672 1381.16 346.672ZM1390.79 359.228V454H1371.18V359.228H1390.79ZM1410 406.528C1410 396.781 1411.95 388.239 1415.84 380.9C1419.86 373.447 1425.36 367.713 1432.36 363.7C1439.35 359.687 1447.38 357.68 1456.44 357.68C1467.9 357.68 1477.36 360.432 1484.82 365.936C1492.38 371.325 1497.49 379.065 1500.12 389.156H1478.97C1477.25 384.455 1474.5 380.785 1470.71 378.148C1466.93 375.511 1462.17 374.192 1456.44 374.192C1448.41 374.192 1441.99 377.059 1437.17 382.792C1432.47 388.411 1430.12 396.323 1430.12 406.528C1430.12 416.733 1432.47 424.703 1437.17 430.436C1441.99 436.169 1448.41 439.036 1456.44 439.036C1467.79 439.036 1475.3 434.048 1478.97 424.072H1500.12C1497.37 433.704 1492.21 441.387 1484.64 447.12C1477.08 452.739 1467.67 455.548 1456.44 455.548C1447.38 455.548 1439.35 453.541 1432.36 449.528C1425.36 445.4 1419.86 439.667 1415.84 432.328C1411.95 424.875 1410 416.275 1410 406.528ZM1539.27 326.72V454H1519.67V326.72H1539.27ZM1651.88 404.292C1651.88 407.847 1651.65 411.057 1651.19 413.924H1578.78C1579.35 421.492 1582.16 427.569 1587.21 432.156C1592.25 436.743 1598.44 439.036 1605.78 439.036C1616.33 439.036 1623.78 434.621 1628.14 425.792H1649.3C1646.43 434.507 1641.21 441.673 1633.65 447.292C1626.19 452.796 1616.9 455.548 1605.78 455.548C1596.72 455.548 1588.58 453.541 1581.36 449.528C1574.25 445.4 1568.63 439.667 1564.5 432.328C1560.49 424.875 1558.48 416.275 1558.48 406.528C1558.48 396.781 1560.43 388.239 1564.33 380.9C1568.34 373.447 1573.9 367.713 1581.01 363.7C1588.24 359.687 1596.49 357.68 1605.78 357.68C1614.73 357.68 1622.69 359.629 1629.69 363.528C1636.68 367.427 1642.13 372.931 1646.03 380.04C1649.93 387.035 1651.88 395.119 1651.88 404.292ZM1631.41 398.1C1631.29 390.876 1628.71 385.085 1623.67 380.728C1618.62 376.371 1612.37 374.192 1604.92 374.192C1598.16 374.192 1592.37 376.371 1587.55 380.728C1582.73 384.971 1579.87 390.761 1578.95 398.1H1631.41ZM1073.29 661.204C1065.26 661.204 1058.04 659.828 1051.62 657.076C1045.19 654.209 1040.15 650.196 1036.48 645.036C1032.81 639.876 1030.98 633.856 1030.98 626.976H1051.96C1052.42 632.136 1054.43 636.379 1057.98 639.704C1061.65 643.029 1066.75 644.692 1073.29 644.692C1080.05 644.692 1085.33 643.087 1089.11 639.876C1092.9 636.551 1094.79 632.308 1094.79 627.148C1094.79 623.135 1093.58 619.867 1091.18 617.344C1088.88 614.821 1085.96 612.872 1082.4 611.496C1078.96 610.12 1074.15 608.629 1067.96 607.024C1060.16 604.96 1053.79 602.896 1048.86 600.832C1044.05 598.653 1039.92 595.328 1036.48 590.856C1033.04 586.384 1031.32 580.421 1031.32 572.968C1031.32 566.088 1033.04 560.068 1036.48 554.908C1039.92 549.748 1044.74 545.792 1050.93 543.04C1057.12 540.288 1064.29 538.912 1072.43 538.912C1084.01 538.912 1093.47 541.836 1100.81 547.684C1108.26 553.417 1112.39 561.329 1113.19 571.42H1091.52C1091.18 567.063 1089.11 563.336 1085.33 560.24C1081.54 557.144 1076.56 555.596 1070.36 555.596C1064.75 555.596 1060.16 557.029 1056.6 559.896C1053.05 562.763 1051.27 566.891 1051.27 572.28C1051.27 575.949 1052.36 578.988 1054.54 581.396C1056.83 583.689 1059.7 585.524 1063.14 586.9C1066.58 588.276 1071.28 589.767 1077.24 591.372C1085.16 593.551 1091.58 595.729 1096.51 597.908C1101.55 600.087 1105.8 603.469 1109.24 608.056C1112.79 612.528 1114.57 618.548 1114.57 626.116C1114.57 632.193 1112.91 637.927 1109.58 643.316C1106.37 648.705 1101.61 653.063 1095.3 656.388C1089.11 659.599 1081.77 661.204 1073.29 661.204ZM1147.68 552.672C1144.13 552.672 1141.14 551.468 1138.74 549.06C1136.33 546.652 1135.12 543.671 1135.12 540.116C1135.12 536.561 1136.33 533.58 1138.74 531.172C1141.14 528.764 1144.13 527.56 1147.68 527.56C1151.12 527.56 1154.04 528.764 1156.45 531.172C1158.86 533.58 1160.06 536.561 1160.06 540.116C1160.06 543.671 1158.86 546.652 1156.45 549.06C1154.04 551.468 1151.12 552.672 1147.68 552.672ZM1157.31 565.228V660H1137.7V565.228H1157.31ZM1221.24 563.68C1228.58 563.68 1235.06 565.171 1240.68 568.152C1246.41 571.019 1250.88 574.631 1254.09 578.988V565.228H1273.87V661.548C1273.87 670.263 1272.04 678.003 1268.37 684.768C1264.7 691.648 1259.37 697.037 1252.37 700.936C1245.49 704.835 1237.24 706.784 1227.6 706.784C1214.76 706.784 1204.1 703.745 1195.61 697.668C1187.13 691.705 1182.31 683.564 1181.16 673.244H1200.6C1202.09 678.175 1205.24 682.131 1210.06 685.112C1214.99 688.208 1220.84 689.756 1227.6 689.756C1235.52 689.756 1241.88 687.348 1246.7 682.532C1251.63 677.716 1254.09 670.721 1254.09 661.548V645.724C1250.77 650.196 1246.24 653.98 1240.5 657.076C1234.89 660.057 1228.46 661.548 1221.24 661.548C1212.98 661.548 1205.42 659.484 1198.54 655.356C1191.77 651.113 1186.38 645.265 1182.37 637.812C1178.47 630.244 1176.52 621.701 1176.52 612.184C1176.52 602.667 1178.47 594.239 1182.37 586.9C1186.38 579.561 1191.77 573.885 1198.54 569.872C1205.42 565.744 1212.98 563.68 1221.24 563.68ZM1254.09 612.528C1254.09 605.992 1252.72 600.316 1249.96 595.5C1247.33 590.684 1243.83 587.015 1239.47 584.492C1235.11 581.969 1230.41 580.708 1225.37 580.708C1220.32 580.708 1215.62 581.969 1211.26 584.492C1206.91 586.9 1203.35 590.512 1200.6 595.328C1197.96 600.029 1196.64 605.648 1196.64 612.184C1196.64 618.72 1197.96 624.453 1200.6 629.384C1203.35 634.315 1206.91 638.099 1211.26 640.736C1215.74 643.259 1220.44 644.52 1225.37 644.52C1230.41 644.52 1235.11 643.259 1239.47 640.736C1243.83 638.213 1247.33 634.544 1249.96 629.728C1252.72 624.797 1254.09 619.064 1254.09 612.528ZM1347.44 563.68C1354.9 563.68 1361.55 565.228 1367.39 568.324C1373.36 571.42 1378 576.007 1381.33 582.084C1384.65 588.161 1386.31 595.5 1386.31 604.1V660H1366.88V607.024C1366.88 598.539 1364.76 592.06 1360.51 587.588C1356.27 583.001 1350.48 580.708 1343.14 580.708C1335.8 580.708 1329.96 583.001 1325.6 587.588C1321.36 592.06 1319.23 598.539 1319.23 607.024V660H1299.63V565.228H1319.23V576.064C1322.45 572.165 1326.52 569.127 1331.45 566.948C1336.49 564.769 1341.82 563.68 1347.44 563.68ZM1404.79 612.184C1404.79 602.667 1406.74 594.239 1410.64 586.9C1414.65 579.561 1420.04 573.885 1426.81 569.872C1433.69 565.744 1441.25 563.68 1449.51 563.68C1456.96 563.68 1463.44 565.171 1468.95 568.152C1474.56 571.019 1479.04 574.631 1482.36 578.988V565.228H1502.14V660H1482.36V645.896C1479.04 650.368 1474.51 654.095 1468.77 657.076C1463.04 660.057 1456.5 661.548 1449.17 661.548C1441.02 661.548 1433.57 659.484 1426.81 655.356C1420.04 651.113 1414.65 645.265 1410.64 637.812C1406.74 630.244 1404.79 621.701 1404.79 612.184ZM1482.36 612.528C1482.36 605.992 1480.99 600.316 1478.23 595.5C1475.6 590.684 1472.1 587.015 1467.74 584.492C1463.38 581.969 1458.68 580.708 1453.64 580.708C1448.59 580.708 1443.89 581.969 1439.53 584.492C1435.18 586.9 1431.62 590.512 1428.87 595.328C1426.23 600.029 1424.91 605.648 1424.91 612.184C1424.91 618.72 1426.23 624.453 1428.87 629.384C1431.62 634.315 1435.18 638.099 1439.53 640.736C1444.01 643.259 1448.71 644.52 1453.64 644.52C1458.68 644.52 1463.38 643.259 1467.74 640.736C1472.1 638.213 1475.6 634.544 1478.23 629.728C1480.99 624.797 1482.36 619.064 1482.36 612.528ZM1547.5 532.72V660H1527.9V532.72H1547.5ZM1073.29 867.204C1065.26 867.204 1058.04 865.828 1051.62 863.076C1045.19 860.209 1040.15 856.196 1036.48 851.036C1032.81 845.876 1030.98 839.856 1030.98 832.976H1051.96C1052.42 838.136 1054.43 842.379 1057.98 845.704C1061.65 849.029 1066.75 850.692 1073.29 850.692C1080.05 850.692 1085.33 849.087 1089.11 845.876C1092.9 842.551 1094.79 838.308 1094.79 833.148C1094.79 829.135 1093.58 825.867 1091.18 823.344C1088.88 820.821 1085.96 818.872 1082.4 817.496C1078.96 816.12 1074.15 814.629 1067.96 813.024C1060.16 810.96 1053.79 808.896 1048.86 806.832C1044.05 804.653 1039.92 801.328 1036.48 796.856C1033.04 792.384 1031.32 786.421 1031.32 778.968C1031.32 772.088 1033.04 766.068 1036.48 760.908C1039.92 755.748 1044.74 751.792 1050.93 749.04C1057.12 746.288 1064.29 744.912 1072.43 744.912C1084.01 744.912 1093.47 747.836 1100.81 753.684C1108.26 759.417 1112.39 767.329 1113.19 777.42H1091.52C1091.18 773.063 1089.11 769.336 1085.33 766.24C1081.54 763.144 1076.56 761.596 1070.36 761.596C1064.75 761.596 1060.16 763.029 1056.6 765.896C1053.05 768.763 1051.27 772.891 1051.27 778.28C1051.27 781.949 1052.36 784.988 1054.54 787.396C1056.83 789.689 1059.7 791.524 1063.14 792.9C1066.58 794.276 1071.28 795.767 1077.24 797.372C1085.16 799.551 1091.58 801.729 1096.51 803.908C1101.55 806.087 1105.8 809.469 1109.24 814.056C1112.79 818.528 1114.57 824.548 1114.57 832.116C1114.57 838.193 1112.91 843.927 1109.58 849.316C1106.37 854.705 1101.61 859.063 1095.3 862.388C1089.11 865.599 1081.77 867.204 1073.29 867.204ZM1157.31 785.16C1160.64 780.803 1165.17 777.133 1170.9 774.152C1176.63 771.171 1183.11 769.68 1190.34 769.68C1198.59 769.68 1206.1 771.744 1212.87 775.872C1219.75 779.885 1225.14 785.561 1229.04 792.9C1232.94 800.239 1234.88 808.667 1234.88 818.184C1234.88 827.701 1232.94 836.244 1229.04 843.812C1225.14 851.265 1219.75 857.113 1212.87 861.356C1206.1 865.484 1198.59 867.548 1190.34 867.548C1183.11 867.548 1176.69 866.115 1171.07 863.248C1165.45 860.267 1160.87 856.597 1157.31 852.24V911.064H1137.7V771.228H1157.31V785.16ZM1214.93 818.184C1214.93 811.648 1213.56 806.029 1210.8 801.328C1208.17 796.512 1204.61 792.9 1200.14 790.492C1195.78 787.969 1191.08 786.708 1186.04 786.708C1181.11 786.708 1176.4 787.969 1171.93 790.492C1167.58 793.015 1164.02 796.684 1161.27 801.5C1158.63 806.316 1157.31 811.992 1157.31 818.528C1157.31 825.064 1158.63 830.797 1161.27 835.728C1164.02 840.544 1167.58 844.213 1171.93 846.736C1176.4 849.259 1181.11 850.52 1186.04 850.52C1191.08 850.52 1195.78 849.259 1200.14 846.736C1204.61 844.099 1208.17 840.315 1210.8 835.384C1213.56 830.453 1214.93 824.72 1214.93 818.184ZM1341.14 816.292C1341.14 819.847 1340.91 823.057 1340.45 825.924H1268.04C1268.61 833.492 1271.42 839.569 1276.46 844.156C1281.51 848.743 1287.7 851.036 1295.04 851.036C1305.59 851.036 1313.04 846.621 1317.4 837.792H1338.55C1335.69 846.507 1330.47 853.673 1322.9 859.292C1315.45 864.796 1306.16 867.548 1295.04 867.548C1285.98 867.548 1277.84 865.541 1270.62 861.528C1263.51 857.4 1257.89 851.667 1253.76 844.328C1249.75 836.875 1247.74 828.275 1247.74 818.528C1247.74 808.781 1249.69 800.239 1253.59 792.9C1257.6 785.447 1263.16 779.713 1270.27 775.7C1277.5 771.687 1285.75 769.68 1295.04 769.68C1303.98 769.68 1311.95 771.629 1318.95 775.528C1325.94 779.427 1331.39 784.931 1335.29 792.04C1339.19 799.035 1341.14 807.119 1341.14 816.292ZM1320.67 810.1C1320.55 802.876 1317.97 797.085 1312.93 792.728C1307.88 788.371 1301.63 786.192 1294.18 786.192C1287.41 786.192 1281.62 788.371 1276.81 792.728C1271.99 796.971 1269.12 802.761 1268.21 810.1H1320.67ZM1353.9 818.528C1353.9 808.781 1355.84 800.239 1359.74 792.9C1363.76 785.447 1369.26 779.713 1376.26 775.7C1383.25 771.687 1391.28 769.68 1400.34 769.68C1411.8 769.68 1421.26 772.432 1428.72 777.936C1436.28 783.325 1441.39 791.065 1444.02 801.156H1422.87C1421.15 796.455 1418.4 792.785 1414.61 790.148C1410.83 787.511 1406.07 786.192 1400.34 786.192C1392.31 786.192 1385.89 789.059 1381.07 794.792C1376.37 800.411 1374.02 808.323 1374.02 818.528C1374.02 828.733 1376.37 836.703 1381.07 842.436C1385.89 848.169 1392.31 851.036 1400.34 851.036C1411.69 851.036 1419.2 846.048 1422.87 836.072H1444.02C1441.27 845.704 1436.11 853.387 1428.54 859.12C1420.98 864.739 1411.57 867.548 1400.34 867.548C1391.28 867.548 1383.25 865.541 1376.26 861.528C1369.26 857.4 1363.76 851.667 1359.74 844.328C1355.84 836.875 1353.9 828.275 1353.9 818.528ZM1473.54 758.672C1469.99 758.672 1467 757.468 1464.6 755.06C1462.19 752.652 1460.98 749.671 1460.98 746.116C1460.98 742.561 1462.19 739.58 1464.6 737.172C1467 734.764 1469.99 733.56 1473.54 733.56C1476.98 733.56 1479.9 734.764 1482.31 737.172C1484.72 739.58 1485.92 742.561 1485.92 746.116C1485.92 749.671 1484.72 752.652 1482.31 755.06C1479.9 757.468 1476.98 758.672 1473.54 758.672ZM1483.17 771.228V866H1463.56V771.228H1483.17ZM1548.65 787.224H1531.1V866H1511.32V787.224H1500.14V771.228H1511.32V764.52C1511.32 753.627 1514.19 745.715 1519.92 740.784C1525.77 735.739 1534.89 733.216 1547.27 733.216V749.556C1541.31 749.556 1537.12 750.703 1534.72 752.996C1532.31 755.175 1531.1 759.016 1531.1 764.52V771.228H1548.65V787.224ZM1576 758.672C1572.45 758.672 1569.47 757.468 1567.06 755.06C1564.65 752.652 1563.45 749.671 1563.45 746.116C1563.45 742.561 1564.65 739.58 1567.06 737.172C1569.47 734.764 1572.45 733.56 1576 733.56C1579.44 733.56 1582.37 734.764 1584.77 737.172C1587.18 739.58 1588.39 742.561 1588.39 746.116C1588.39 749.671 1587.18 752.652 1584.77 755.06C1582.37 757.468 1579.44 758.672 1576 758.672ZM1585.63 771.228V866H1566.03V771.228H1585.63ZM1604.84 818.528C1604.84 808.781 1606.79 800.239 1610.69 792.9C1614.7 785.447 1620.21 779.713 1627.2 775.7C1634.2 771.687 1642.22 769.68 1651.28 769.68C1662.75 769.68 1672.21 772.432 1679.66 777.936C1687.23 783.325 1692.33 791.065 1694.97 801.156H1673.81C1672.09 796.455 1669.34 792.785 1665.56 790.148C1661.77 787.511 1657.01 786.192 1651.28 786.192C1643.25 786.192 1636.83 789.059 1632.02 794.792C1627.32 800.411 1624.96 808.323 1624.96 818.528C1624.96 828.733 1627.32 836.703 1632.02 842.436C1636.83 848.169 1643.25 851.036 1651.28 851.036C1662.63 851.036 1670.14 846.048 1673.81 836.072H1694.97C1692.22 845.704 1687.06 853.387 1679.49 859.12C1671.92 864.739 1662.52 867.548 1651.28 867.548C1642.22 867.548 1634.2 865.541 1627.2 861.528C1620.21 857.4 1614.7 851.667 1610.69 844.328C1606.79 836.875 1604.84 828.275 1604.84 818.528ZM1707.97 818.184C1707.97 808.667 1709.92 800.239 1713.82 792.9C1717.83 785.561 1723.22 779.885 1729.99 775.872C1736.87 771.744 1744.44 769.68 1752.69 769.68C1760.15 769.68 1766.63 771.171 1772.13 774.152C1777.75 777.019 1782.22 780.631 1785.55 784.988V771.228H1805.33V866H1785.55V851.896C1782.22 856.368 1777.69 860.095 1771.96 863.076C1766.22 866.057 1759.69 867.548 1752.35 867.548C1744.21 867.548 1736.75 865.484 1729.99 861.356C1723.22 857.113 1717.83 851.265 1713.82 843.812C1709.92 836.244 1707.97 827.701 1707.97 818.184ZM1785.55 818.528C1785.55 811.992 1784.17 806.316 1781.42 801.5C1778.78 796.684 1775.28 793.015 1770.93 790.492C1766.57 787.969 1761.87 786.708 1756.82 786.708C1751.78 786.708 1747.07 787.969 1742.72 790.492C1738.36 792.9 1734.81 796.512 1732.05 801.328C1729.42 806.029 1728.1 811.648 1728.1 818.184C1728.1 824.72 1729.42 830.453 1732.05 835.384C1734.81 840.315 1738.36 844.099 1742.72 846.736C1747.19 849.259 1751.89 850.52 1756.82 850.52C1761.87 850.52 1766.57 849.259 1770.93 846.736C1775.28 844.213 1778.78 840.544 1781.42 835.728C1784.17 830.797 1785.55 825.064 1785.55 818.528ZM1853.96 787.224V839.684C1853.96 843.239 1854.76 845.819 1856.36 847.424C1858.08 848.915 1860.95 849.66 1864.96 849.66H1877V866H1861.52C1852.69 866 1845.93 863.936 1841.23 859.808C1836.53 855.68 1834.18 848.972 1834.18 839.684V787.224H1823V771.228H1834.18V747.664H1853.96V771.228H1877V787.224H1853.96ZM1905.05 758.672C1901.5 758.672 1898.52 757.468 1896.11 755.06C1893.7 752.652 1892.5 749.671 1892.5 746.116C1892.5 742.561 1893.7 739.58 1896.11 737.172C1898.52 734.764 1901.5 733.56 1905.05 733.56C1908.49 733.56 1911.42 734.764 1913.82 737.172C1916.23 739.58 1917.44 742.561 1917.44 746.116C1917.44 749.671 1916.23 752.652 1913.82 755.06C1911.42 757.468 1908.49 758.672 1905.05 758.672ZM1914.68 771.228V866H1895.08V771.228H1914.68ZM1981.54 867.548C1972.59 867.548 1964.51 865.541 1957.28 861.528C1950.06 857.4 1944.38 851.667 1940.26 844.328C1936.13 836.875 1934.06 828.275 1934.06 818.528C1934.06 808.896 1936.18 800.353 1940.43 792.9C1944.67 785.447 1950.46 779.713 1957.8 775.7C1965.14 771.687 1973.34 769.68 1982.4 769.68C1991.45 769.68 1999.65 771.687 2006.99 775.7C2014.33 779.713 2020.12 785.447 2024.36 792.9C2028.61 800.353 2030.73 808.896 2030.73 818.528C2030.73 828.16 2028.55 836.703 2024.19 844.156C2019.83 851.609 2013.87 857.4 2006.3 861.528C1998.85 865.541 1990.59 867.548 1981.54 867.548ZM1981.54 850.52C1986.58 850.52 1991.28 849.316 1995.64 846.908C2000.11 844.5 2003.72 840.888 2006.48 836.072C2009.23 831.256 2010.6 825.408 2010.6 818.528C2010.6 811.648 2009.28 805.857 2006.65 801.156C2004.01 796.34 2000.51 792.728 1996.16 790.32C1991.8 787.912 1987.1 786.708 1982.05 786.708C1977.01 786.708 1972.3 787.912 1967.95 790.32C1963.7 792.728 1960.32 796.34 1957.8 801.156C1955.28 805.857 1954.02 811.648 1954.02 818.528C1954.02 828.733 1956.6 836.645 1961.76 842.264C1967.03 847.768 1973.62 850.52 1981.54 850.52ZM2097.93 769.68C2105.38 769.68 2112.03 771.228 2117.88 774.324C2123.84 777.42 2128.49 782.007 2131.81 788.084C2135.14 794.161 2136.8 801.5 2136.8 810.1V866H2117.36V813.024C2117.36 804.539 2115.24 798.06 2111 793.588C2106.76 789.001 2100.97 786.708 2093.63 786.708C2086.29 786.708 2080.44 789.001 2076.08 793.588C2071.84 798.06 2069.72 804.539 2069.72 813.024V866H2050.11V771.228H2069.72V782.064C2072.93 778.165 2077 775.127 2081.93 772.948C2086.98 770.769 2092.31 769.68 2097.93 769.68Z" fill="black"/>
<path d="M335.404 429.496L560.404 275.16C584.265 258.794 615.735 258.793 639.596 275.16L864.596 429.496C883.626 442.549 895 464.144 895 487.221V712.779C895 735.856 883.626 757.451 864.596 770.504L639.596 924.84C615.735 941.206 584.265 941.206 560.404 924.84L335.404 770.504C316.374 757.451 305 735.856 305 712.779V487.221C305 464.144 316.374 442.549 335.404 429.496Z" fill="#1D1D1D"/>
<path d="M433.715 517.611C426.188 524.642 420.798 533.655 418.165 543.613C415.532 553.571 415.764 564.07 418.834 573.903C421.903 583.735 427.686 592.501 435.517 599.193C443.347 605.884 452.908 610.229 463.098 611.729C473.289 613.228 483.696 611.82 493.122 607.667C502.548 603.514 510.61 596.785 516.381 588.253C522.152 579.721 525.398 569.734 525.745 559.439C526.092 549.145 523.526 538.962 518.342 530.061L519.35 529.119C524.065 524.723 530.332 522.377 536.776 522.596C543.219 522.814 549.313 525.58 553.72 530.285L628.431 610.242C634.254 616.489 641.627 621.082 649.801 623.553L626.254 645.554C615.116 638.012 601.589 634.837 588.259 636.636C574.928 638.436 562.727 645.083 553.986 655.308C545.246 665.533 540.578 678.62 540.876 692.068C541.173 705.517 546.414 718.384 555.598 728.213C564.782 738.042 577.264 744.144 590.662 745.352C604.059 746.56 617.432 742.791 628.226 734.763C639.021 726.736 646.479 715.014 649.178 701.836C651.877 688.657 649.626 674.947 642.856 663.323L698.178 611.632C709.317 619.174 722.843 622.349 736.174 620.55C749.505 618.751 761.706 612.104 770.447 601.879C779.187 591.653 783.854 578.567 783.557 565.118C783.26 551.67 778.019 538.802 768.835 528.973C759.651 519.144 747.168 513.043 733.771 511.834C720.373 510.626 707 514.396 696.206 522.423C685.412 530.45 677.953 542.172 675.255 555.351C672.556 568.529 674.806 582.24 681.576 593.864L680.569 594.805C675.853 599.201 669.586 601.547 663.143 601.329C656.7 601.111 650.606 598.345 646.199 593.64L571.488 513.684C562.674 504.272 550.487 498.741 537.6 498.304C524.713 497.867 512.179 502.559 502.748 511.351L501.74 512.293C491.47 505.357 479.153 502.107 466.799 503.073C454.444 504.039 442.782 509.164 433.715 517.611ZM616.337 713.062C611.944 717.166 606.433 719.876 600.5 720.848C594.567 721.82 588.479 721.012 583.006 718.524C577.533 716.036 572.921 711.981 569.752 706.872C566.583 701.763 565.001 695.829 565.205 689.821C565.409 683.812 567.39 677.999 570.897 673.117C574.405 668.234 579.282 664.501 584.911 662.39C590.54 660.279 596.669 659.885 602.522 661.257C608.375 662.629 613.69 665.706 617.794 670.099C623.29 675.994 626.222 683.828 625.949 691.882C625.676 699.936 622.219 707.553 616.337 713.062ZM708.096 544.124C712.489 540.02 718 537.31 723.933 536.338C729.866 535.366 735.954 536.175 741.427 538.662C746.9 541.15 751.512 545.205 754.681 550.314C757.849 555.423 759.432 561.357 759.228 567.365C759.024 573.374 757.043 579.187 753.535 584.07C750.028 588.952 745.151 592.685 739.522 594.796C733.893 596.907 727.764 597.301 721.911 595.929C716.058 594.557 710.743 591.48 706.638 587.087C701.143 581.192 698.21 573.358 698.484 565.304C698.757 557.25 702.214 549.633 708.096 544.124Z" fill="white"/>
</svg>
